<?xml version="1.0" standalone="no"?>
<!DOCTYPE svg PUBLIC "-//W3C//DTD SVG 20010904//EN"
 "http://www.w3.org/TR/2001/REC-SVG-20010904/DTD/svg10.dtd">
<svg version="1.0" xmlns="http://www.w3.org/2000/svg"
 width="647.000000pt" height="647.000000pt" viewBox="0 0 647.000000 647.000000"
 preserveAspectRatio="xMidYMid meet">
<metadata>
Created by potrace 1.14, written by Peter Selinger 2001-2017
</metadata>
<g transform="translate(0.000000,647.000000) scale(0.100000,-0.100000)"
fill="#000000" stroke="none">
<path d="M935 5118 c-3 -13 -37 -151 -76 -308 -39 -157 -72 -292 -74 -300 -13
-57 -108 -441 -115 -465 -8 -24 -27 -104 -45 -180 -1 -5 -5 -21 -8 -35 -13
-48 -188 -755 -193 -775 -2 -11 -20 -85 -40 -165 -20 -80 -38 -152 -40 -160
-15 -63 -100 -405 -120 -485 -14 -55 -28 -113 -31 -130 -3 -16 -9 -38 -14 -47
-5 -10 -7 -18 -5 -18 3 0 1 -11 -4 -26 -6 -14 -12 -38 -15 -53 -3 -15 -23 -97
-44 -182 -22 -85 -42 -165 -45 -179 -3 -14 -7 -34 -10 -45 -26 -100 -56 -221
-56 -226 0 -4 122 -6 271 -5 l272 1 13 37 c7 20 15 50 17 65 3 15 22 98 42
183 20 85 38 163 40 173 2 10 6 26 9 35 3 9 7 28 10 42 4 19 67 289 91 390 6
26 67 284 70 300 2 8 11 47 20 85 21 89 25 104 31 135 3 14 14 59 24 100 18
72 87 363 95 405 2 11 9 38 14 60 15 58 41 167 45 190 2 11 14 61 26 110 11
50 35 146 51 215 17 69 39 163 49 210 10 47 35 153 55 235 20 83 39 161 41
175 3 14 7 33 10 42 3 9 6 25 8 35 2 11 11 48 20 84 15 63 102 433 111 477 l5
22 -250 0 -250 0 -5 -22z"/>
<path d="M5035 5121 c3 -11 8 -28 10 -38 2 -10 11 -49 20 -88 9 -38 18 -77 20
-85 2 -8 20 -85 40 -170 20 -85 39 -166 42 -179 2 -14 6 -28 8 -31 2 -4 7 -22
10 -41 3 -19 17 -77 29 -129 13 -52 31 -126 40 -165 17 -76 138 -593 187 -798
17 -71 32 -136 34 -145 2 -10 15 -66 30 -127 15 -60 29 -121 31 -135 3 -14 7
-33 10 -42 3 -9 6 -25 8 -35 4 -18 55 -237 100 -424 14 -57 48 -203 76 -324
62 -267 94 -403 121 -515 11 -47 32 -137 47 -200 l27 -115 273 -1 c195 -1 272
2 272 10 0 6 -5 29 -11 51 -5 22 -12 49 -14 61 -3 11 -30 121 -61 245 -31 123
-58 232 -60 241 -5 24 -4 17 -78 318 -36 146 -75 301 -87 345 -12 44 -23 87
-24 97 -2 9 -22 92 -45 185 -23 92 -43 175 -45 183 -2 8 -21 87 -44 175 -22
88 -80 324 -130 525 -49 201 -140 565 -201 809 -61 245 -112 454 -115 465 -3
12 -8 37 -13 56 l-8 35 -253 3 c-246 2 -252 2 -246 -17z"/>
<path d="M2129 4372 c-16 -3 -15 -11 51 -306 12 -54 23 -106 25 -115 1 -9 22
-101 45 -206 24 -104 47 -210 52 -235 5 -25 11 -54 13 -65 38 -179 54 -234 56
-189 0 10 2 26 4 34 2 8 22 98 45 200 22 102 42 192 44 200 2 8 27 123 56 255
28 132 60 280 71 329 10 49 19 92 19 95 0 6 -453 9 -481 3z"/>
<path d="M3882 4372 c-17 -3 -21 -8 -17 -25 27 -117 45 -197 49 -217 2 -14 12
-59 21 -100 9 -41 19 -86 21 -99 3 -12 12 -53 20 -90 9 -36 18 -75 20 -86 9
-50 36 -176 50 -234 9 -36 18 -74 20 -85 27 -146 54 -238 53 -180 -1 10 6 48
14 84 33 143 86 386 91 410 2 14 25 117 50 230 25 113 48 216 50 230 3 14 7
34 10 45 2 11 9 40 15 65 6 25 11 47 11 50 0 5 -440 7 -478 2z"/>
<path d="M1626 4053 c-20 -76 -41 -149 -46 -163 -5 -14 -48 -166 -96 -338
l-87 -313 18 -72 c9 -40 48 -198 85 -352 38 -154 87 -356 110 -450 23 -93 43
-179 46 -190 2 -11 23 -99 47 -195 l43 -175 247 0 c191 -1 247 2 247 12 0 7
-18 86 -39 175 -22 90 -60 249 -85 353 -25 105 -64 264 -86 355 -22 91 -42
174 -44 185 -2 11 -16 65 -30 120 -13 55 -27 111 -30 125 -2 14 -43 185 -91
380 -47 195 -102 422 -121 505 -20 82 -39 156 -43 163 -4 8 -23 -44 -45 -125z"/>
<path d="M4755 3998 c-26 -106 -51 -209 -55 -228 -4 -19 -38 -159 -74 -310
-37 -151 -69 -284 -72 -295 -2 -11 -22 -94 -44 -185 -22 -91 -67 -277 -100
-415 -33 -137 -87 -362 -120 -499 -33 -137 -60 -252 -60 -255 0 -8 486 -8 494
0 4 4 9 16 11 28 10 46 13 58 25 101 7 25 14 53 16 63 4 21 72 301 201 827 53
212 95 394 95 405 0 11 -23 101 -52 200 -28 99 -53 187 -55 195 -1 8 -29 105
-60 215 -31 110 -58 207 -60 215 -14 54 -34 123 -38 127 -3 2 -26 -83 -52
-189z"/>
<path d="M3610 3427 c0 -3 -16 -79 -36 -169 -20 -90 -37 -170 -39 -178 -5 -23
-113 -522 -141 -650 -14 -63 -27 -120 -29 -126 -4 -13 482 -17 490 -4 3 5 -18
114 -45 242 -28 128 -76 346 -106 483 -30 138 -58 266 -64 285 -5 19 -12 53
-16 75 -5 34 -14 61 -14 42z"/>
<path d="M2859 3415 c-6 -10 -17 -51 -25 -90 -2 -11 -15 -72 -29 -135 -34
-153 -105 -479 -111 -510 -3 -14 -14 -65 -25 -115 -12 -49 -23 -101 -25 -115
-3 -14 -12 -53 -20 -88 -7 -35 -14 -65 -14 -67 0 -2 112 -3 250 -3 248 1 250
1 245 22 -2 12 -11 50 -19 86 -31 137 -39 178 -52 244 -2 16 -7 32 -9 36 -2 4
-7 20 -9 36 -6 29 -28 133 -104 484 -23 102 -42 194 -44 205 -2 11 -6 16 -9
10z"/>
</g>
</svg>
